<?xml version="1.0" encoding="UTF-8" standalone="no"?> <!-- Created with Vectornator for iOS (http://vectornator.io/) --><!DOCTYPE svg PUBLIC "-//W3C//DTD SVG 1.1//EN" "http://www.w3.org/Graphics/SVG/1.1/DTD/svg11.dtd">
<svg height="100%" style="fill-rule:nonzero;clip-rule:evenodd;stroke-linecap:round;stroke-linejoin:round;" xmlns:xlink="http://www.w3.org/1999/xlink" xmlns="http://www.w3.org/2000/svg" xml:space="preserve" width="100%" xmlns:vectornator="http://vectornator.io" version="1.1" viewBox="0 0 286.096 96.0343">
<metadata>
<vectornator:setting key="Units" value="Millimeters"/>
<vectornator:setting key="DisplayWhiteBackground" value="0"/>
<vectornator:setting key="RulersVisible" value="1"/>
<vectornator:setting key="doHistoryDisabled" value="0"/>
<vectornator:setting key="DimensionsVisible" value="1"/>
<vectornator:setting key="GuidesVisible" value="1"/>
<vectornator:setting key="CMYKEnabledKey" value="0"/>
<vectornator:setting key="IsolateActiveLayer" value="0"/>
<vectornator:setting key="OutlineMode" value="0"/>
<vectornator:setting key="SnapToGrid" value="0"/>
<vectornator:setting key="SnapToPoints" value="0"/>
<vectornator:setting key="DynamicGuides" value="0"/>
<vectornator:setting key="SnapToGuides" value="1"/>
<vectornator:setting key="PencilOnly" value="0"/>
<vectornator:setting key="TimeLapseWatermarkDisabled" value="0"/>
<vectornator:setting key="SnapToEdges" value="0"/>
</metadata>
<defs/>
<g id="Layer 1" vectornator:layerName="Layer 1">
<path stroke="#030301" stroke-width="1" d="M10.1557+47.9163L276.665+48.2213" fill="none" stroke-linecap="round" opacity="1" stroke-linejoin="round"/>
<path stroke="#030301" stroke-width="1.1" d="M91.4748+83.3601L139.785+10.0407M170.407+33.9527L170.407+33.9527C178.121+33.9527+184.374+40.2727+184.374+48.0688L184.374+48.0688C184.374+55.8649+178.121+62.1849+170.407+62.1849L170.407+62.1849C162.693+62.1849+156.439+55.8649+156.439+48.0688L156.439+48.0688C156.439+40.2727+162.693+33.9527+170.407+33.9527Z" fill="none" stroke-linecap="butt" opacity="1" stroke-linejoin="miter"/>
<path stroke="#030301" stroke-width="7.8" d="M261.677+22.4238C261.3+22.352+260.895+22.4408+260.552+22.6738C259.867+23.1397+259.68+24.0513+260.146+24.7363L279.115+48.2363L259.396+71.3613C258.911+72.0325+259.069+72.9695+259.74+73.4551C260.411+73.9406+261.348+73.7825+261.834+73.1113L282.177+49.1426C282.548+48.6308+282.533+47.9461+282.177+47.4238L262.615+23.0488C262.382+22.7063+262.054+22.4956+261.677+22.4238ZM25.0524+22.9863C24.6736+23.0491+24.2934+23.2744+24.0524+23.6113L4.33362+46.9863C3.96372+47.5032+3.96972+48.1839+4.33362+48.7051L23.9586+72.5176C24.4329+73.1968+25.3732+73.3669+26.0524+72.8926C26.7316+72.4183+26.8704+71.478+26.3961+70.7988L7.39612+47.8613L26.5211+25.3301C27.0033+24.6564+26.8198+23.7184+26.1461+23.2363C25.8093+22.9952+25.4311+22.9236+25.0524+22.9863Z" fill="#030301" stroke-linecap="butt" opacity="1" stroke-linejoin="miter"/>
<path stroke="#030301" stroke-width="0.8" d="M221.089+39.4127L221.089+39.4127C225.82+39.4127+229.654+43.2882+229.654+48.0688L229.654+48.0688C229.654+52.8494+225.82+56.7248+221.089+56.7248L221.089+56.7248C216.359+56.7248+212.524+52.8494+212.524+48.0688L212.524+48.0688C212.524+43.2882+216.359+39.4127+221.089+39.4127Z" fill="none" stroke-linecap="butt" opacity="1" stroke-linejoin="miter"/>
<path stroke="#030301" stroke-width="1.1" d="M92.3429+83.4186L36.2562+12.7189M114.633+34.3568L114.633+34.3568C122.347+34.3568+128.6+40.6768+128.6+48.4729L128.6+48.4729C128.6+56.269+122.347+62.589+114.633+62.589L114.633+62.589C106.919+62.589+100.665+56.269+100.665+48.4729L100.665+48.4729C100.665+40.6768+106.919+34.3568+114.633+34.3568Z" fill="none" stroke-linecap="butt" opacity="1" stroke-linejoin="miter"/>
<path stroke="#030301" stroke-width="3" d="M220.968+27.5212C232.311+27.5212+241.499+36.7413+241.499+48.0837C241.499+59.4261+232.311+68.615+220.968+68.615C209.626+68.615+200.437+59.4261+200.437+48.0837C200.437+36.7413+209.626+27.5212+220.968+27.5212ZM220.625+20.9281C206.673+20.9281+195.278+31.375+193.468+44.8343L170.562+44.7093C167.636+44.6967+166.005+48.0633+167.812+50.3656L180.468+66.4906C171.876+71.1446+160.947+69.1807+154.656+61.2718C147.595+52.3952+149.061+39.4888+157.937+32.4281C166.452+25.6552+177.919+28.4326+181.806+30.0604C183.589+30.807+185.625+29.8435+186.31+28.0361C186.996+26.2286+186.012+24.4023+184.286+23.5316C182.074+22.4156+177.578+21.4074+173.031+21.0531C166.263+20.5257+159.3+22.3886+153.593+26.9281C141.691+36.3956+139.72+53.7134+149.187+65.6156C158.621+77.4751+175.846+79.4839+187.75+70.1156C189.267+68.9213+189.536+66.7285+188.343+65.2093L177.781+51.7406L193.437+51.8343C195.101+65.4493+206.559+76.0218+220.625+76.0218C235.833+76.0218+248.156+63.699+248.156+48.4906C248.156+33.2822+235.833+20.9281+220.625+20.9281Z" fill="#030301" stroke-linecap="butt" opacity="1" stroke-linejoin="miter"/>
<path stroke="#030301" stroke-width="0.8" d="M63.324+39.6262L63.324+39.6262C68.0543+39.6262+71.8889+43.5017+71.8889+48.2823L71.8889+48.2823C71.8889+53.0629+68.0543+56.9384+63.324+56.9384L63.324+56.9384C58.5937+56.9384+54.7591+53.0629+54.7591+48.2823L54.7591+48.2823C54.7591+43.5017+58.5937+39.6262+63.324+39.6262Z" fill="none" stroke-linecap="butt" opacity="1" stroke-linejoin="miter"/>
<path stroke="#030301" stroke-width="3" d="M114.602+27.703C125.945+27.703+135.134+36.9231+135.134+48.2655C135.134+59.6079+125.945+68.7968+114.602+68.7968C103.26+68.7968+94.071+59.6079+94.0711+48.2655C94.0711+36.9232+103.26+27.703+114.602+27.703ZM114.602+20.703C100.651+20.703+89.2552+31.1499+87.4461+44.6093L64.5398+44.4843C61.6133+44.4716+59.9831+47.8382+61.7898+50.1405L74.4461+66.2655C65.8538+70.9195+54.9246+68.9556+48.6336+61.0468C41.5728+52.1702+43.0382+39.2638+51.9148+32.203C60.4295+25.4301+71.8963+28.2075+75.7837+29.8353C77.5667+30.5819+79.6029+29.6185+80.2881+27.811C80.9733+26.0035+79.9897+24.1772+78.2639+23.3066C76.0516+22.1905+71.5556+21.1823+67.0086+20.828C60.2403+20.3007+53.278+22.1635+47.5711+26.703C35.6689+36.1705+33.6974+53.4884+43.1648+65.3905C52.5984+77.25+69.8237+79.2589+81.7273+69.8905C83.2448+68.6962+83.5133+66.5035+82.3211+64.9843L71.7586+51.5155L87.4148+51.6093C89.0786+65.2243+100.537+75.7968+114.602+75.7968C129.811+75.7968+142.134+63.4739+142.134+48.2655C142.134+33.0572+129.811+20.703+114.602+20.703Z" fill="#030301" stroke-linecap="butt" opacity="1" stroke-linejoin="miter"/>
<path stroke="#030301" stroke-width="1" d="M197.853+83.4148L246.814+8.75945" fill="none" stroke-linecap="butt" opacity="1" stroke-linejoin="miter"/>
<path stroke="#030301" stroke-width="1" d="M198.383+82.9228L140.428+9.9683" fill="none" stroke-linecap="butt" opacity="1" stroke-linejoin="miter"/>
</g>
</svg>
